G04 #@! TF.GenerationSoftware,KiCad,Pcbnew,8.0.0*
G04 #@! TF.CreationDate,2024-03-22T18:47:31-04:00*
G04 #@! TF.ProjectId,postmech2.1,706f7374-6d65-4636-9832-2e312e6b6963,2.1*
G04 #@! TF.SameCoordinates,Original*
G04 #@! TF.FileFunction,Soldermask,Top*
G04 #@! TF.FilePolarity,Negative*
%FSLAX46Y46*%
G04 Gerber Fmt 4.6, Leading zero omitted, Abs format (unit mm)*
G04 Created by KiCad (PCBNEW 8.0.0) date 2024-03-22 18:47:31*
%MOMM*%
%LPD*%
G01*
G04 APERTURE LIST*
%ADD10C,1.750000*%
%ADD11C,4.000000*%
%ADD12C,2.500000*%
%ADD13C,3.048000*%
%ADD14C,3.987800*%
%ADD15R,1.752600X1.752600*%
%ADD16C,1.752600*%
%ADD17R,1.600000X1.600000*%
%ADD18O,1.600000X1.600000*%
G04 APERTURE END LIST*
D10*
X270515000Y-116475000D03*
D11*
X275595000Y-116475000D03*
D10*
X280675000Y-116475000D03*
D12*
X271785000Y-113935000D03*
X278135000Y-111395000D03*
D10*
X67274000Y-116475000D03*
D11*
X72354000Y-116475000D03*
D10*
X77434000Y-116475000D03*
D12*
X68544000Y-113935000D03*
X74894000Y-111395000D03*
D10*
X92677000Y-154580000D03*
D11*
X97757000Y-154580000D03*
D10*
X102837000Y-154580000D03*
D12*
X93947000Y-152040000D03*
X100297000Y-149500000D03*
D10*
X87907000Y-173630000D03*
D11*
X92987000Y-173630000D03*
D10*
X98067000Y-173630000D03*
D12*
X89177000Y-171090000D03*
X95527000Y-168550000D03*
D10*
X287947000Y-173625000D03*
D11*
X293027000Y-173625000D03*
D10*
X298107000Y-173625000D03*
D12*
X289217000Y-171085000D03*
X295567000Y-168545000D03*
D10*
X52981400Y-135525000D03*
D11*
X58061400Y-135525000D03*
D10*
X63141400Y-135525000D03*
D12*
X54251400Y-132985000D03*
X60601400Y-130445000D03*
D10*
X257808200Y-135535000D03*
D11*
X262888200Y-135535000D03*
D10*
X267968200Y-135535000D03*
D12*
X259078200Y-132995000D03*
X265428200Y-130455000D03*
D10*
X168882000Y-97425000D03*
D11*
X173962000Y-97425000D03*
D10*
X179042000Y-97425000D03*
D12*
X170152000Y-94885000D03*
X176502000Y-92345000D03*
D10*
X283222000Y-97425000D03*
D11*
X288302000Y-97425000D03*
D10*
X293382000Y-97425000D03*
D12*
X284492000Y-94885000D03*
X290842000Y-92345000D03*
D10*
X283197000Y-154570000D03*
D11*
X288277000Y-154570000D03*
D10*
X293357000Y-154570000D03*
D12*
X284467000Y-152030000D03*
X290817000Y-149490000D03*
D10*
X130777000Y-154570000D03*
D11*
X135857000Y-154570000D03*
D10*
X140937000Y-154570000D03*
D12*
X132047000Y-152030000D03*
X138397000Y-149490000D03*
D10*
X251470000Y-116475000D03*
D11*
X256550000Y-116475000D03*
D10*
X261630000Y-116475000D03*
D12*
X252740000Y-113935000D03*
X259090000Y-111395000D03*
D10*
X354682100Y-73614900D03*
D11*
X359762100Y-73614900D03*
D10*
X364842100Y-73614900D03*
D12*
X355952100Y-71074900D03*
X362302100Y-68534900D03*
D10*
X309387000Y-173625000D03*
D11*
X314467000Y-173625000D03*
D10*
X319547000Y-173625000D03*
D12*
X310657000Y-171085000D03*
X317007000Y-168545000D03*
D10*
X335582100Y-173600000D03*
D11*
X340662100Y-173600000D03*
D10*
X345742100Y-173600000D03*
D12*
X336852100Y-171060000D03*
X343202100Y-168520000D03*
D10*
X273717000Y-73614900D03*
D11*
X278797000Y-73614900D03*
D10*
X283877000Y-73614900D03*
D12*
X274987000Y-71074900D03*
X281337000Y-68534900D03*
D13*
X135807000Y-166585050D03*
D14*
X135807000Y-181795050D03*
D13*
X231057000Y-166585050D03*
D14*
X231057000Y-181795050D03*
D10*
X232425000Y-116470000D03*
D11*
X237505000Y-116470000D03*
D10*
X242585000Y-116470000D03*
D12*
X233695000Y-113930000D03*
X240045000Y-111390000D03*
D10*
X226042000Y-97425000D03*
D11*
X231122000Y-97425000D03*
D10*
X236202000Y-97425000D03*
D12*
X227312000Y-94885000D03*
X233662000Y-92345000D03*
D10*
X254667000Y-73614900D03*
D11*
X259747000Y-73614900D03*
D10*
X264827000Y-73614900D03*
D12*
X255937000Y-71074900D03*
X262287000Y-68534900D03*
D10*
X303832600Y-135530000D03*
D11*
X308912600Y-135530000D03*
D10*
X313992600Y-135530000D03*
D12*
X305102600Y-132990000D03*
X311452600Y-130450000D03*
D10*
X86339000Y-116475000D03*
D11*
X91419000Y-116475000D03*
D10*
X96499000Y-116475000D03*
D12*
X87609000Y-113935000D03*
X93959000Y-111395000D03*
D10*
X219718200Y-135530000D03*
D11*
X224798200Y-135530000D03*
D10*
X229878200Y-135530000D03*
D12*
X220988200Y-132990000D03*
X227338200Y-130450000D03*
D10*
X354632100Y-154550000D03*
D11*
X359712100Y-154550000D03*
D10*
X364792100Y-154550000D03*
D12*
X355902100Y-152010000D03*
X362252100Y-149470000D03*
D10*
X206987000Y-154570000D03*
D11*
X212067000Y-154570000D03*
D10*
X217147000Y-154570000D03*
D12*
X208257000Y-152030000D03*
X214607000Y-149490000D03*
D10*
X46634000Y-116470000D03*
D11*
X51714000Y-116470000D03*
D10*
X56794000Y-116470000D03*
D12*
X47904000Y-113930000D03*
X54254000Y-111390000D03*
D10*
X111732000Y-154575000D03*
D11*
X116812000Y-154575000D03*
D10*
X121892000Y-154575000D03*
D12*
X113002000Y-152035000D03*
X119352000Y-149495000D03*
D10*
X109337000Y-173630000D03*
D11*
X114417000Y-173630000D03*
D10*
X119497000Y-173630000D03*
D12*
X110607000Y-171090000D03*
X116957000Y-168550000D03*
D10*
X247462000Y-173625000D03*
D11*
X252542000Y-173625000D03*
D10*
X257622000Y-173625000D03*
D12*
X248732000Y-171085000D03*
X255082000Y-168545000D03*
D10*
X111732000Y-97425000D03*
D11*
X116812000Y-97425000D03*
D10*
X121892000Y-97425000D03*
D12*
X113002000Y-94885000D03*
X119352000Y-92345000D03*
D10*
X276848200Y-135535000D03*
D11*
X281928200Y-135535000D03*
D10*
X287008200Y-135535000D03*
D12*
X278118200Y-132995000D03*
X284468200Y-130455000D03*
D10*
X137130800Y-135520000D03*
D11*
X142210800Y-135520000D03*
D10*
X147290800Y-135520000D03*
D12*
X138400800Y-132980000D03*
X144750800Y-130440000D03*
D10*
X49812000Y-97425000D03*
D11*
X54892000Y-97425000D03*
D10*
X59972000Y-97425000D03*
D12*
X51082000Y-94885000D03*
X57432000Y-92345000D03*
D10*
X140297000Y-73614900D03*
D11*
X145377000Y-73614900D03*
D10*
X150457000Y-73614900D03*
D12*
X141567000Y-71074900D03*
X147917000Y-68534900D03*
D10*
X187932000Y-97425000D03*
D11*
X193012000Y-97425000D03*
D10*
X198092000Y-97425000D03*
D12*
X189202000Y-94885000D03*
X195552000Y-92345000D03*
D10*
X92672000Y-97425000D03*
D11*
X97752000Y-97425000D03*
D10*
X102832000Y-97425000D03*
D12*
X93942000Y-94885000D03*
X100292000Y-92345000D03*
D10*
X102197000Y-73614900D03*
D11*
X107277000Y-73614900D03*
D10*
X112357000Y-73614900D03*
D12*
X103467000Y-71074900D03*
X109817000Y-68534900D03*
D10*
X373702100Y-116440000D03*
D11*
X378782100Y-116440000D03*
D10*
X383862100Y-116440000D03*
D12*
X374972100Y-113900000D03*
X381322100Y-111360000D03*
D10*
X118075800Y-135525000D03*
D11*
X123155800Y-135525000D03*
D10*
X128235800Y-135525000D03*
D12*
X119345800Y-132985000D03*
X125695800Y-130445000D03*
D10*
X311807000Y-73614900D03*
D11*
X316887000Y-73614900D03*
D10*
X321967000Y-73614900D03*
D12*
X313077000Y-71074900D03*
X319427000Y-68534900D03*
D10*
X156175800Y-135520000D03*
D11*
X161255800Y-135520000D03*
D10*
X166335800Y-135520000D03*
D12*
X157445800Y-132980000D03*
X163795800Y-130440000D03*
D10*
X178432000Y-135530000D03*
D11*
X183512000Y-135530000D03*
D10*
X188592000Y-135530000D03*
D12*
X179702000Y-132990000D03*
X186052000Y-130450000D03*
D10*
X99020800Y-135525000D03*
D11*
X104100800Y-135525000D03*
D10*
X109180800Y-135525000D03*
D12*
X100290800Y-132985000D03*
X106640800Y-130445000D03*
D10*
X373682100Y-73614900D03*
D11*
X378762100Y-73614900D03*
D10*
X383842100Y-73614900D03*
D12*
X374952100Y-71074900D03*
X381302100Y-68534900D03*
D10*
X354652100Y-116440000D03*
D11*
X359732100Y-116440000D03*
D10*
X364812100Y-116440000D03*
D12*
X355922100Y-113900000D03*
X362272100Y-111360000D03*
D10*
X289565000Y-116475000D03*
D11*
X294645000Y-116475000D03*
D10*
X299725000Y-116475000D03*
D12*
X290835000Y-113935000D03*
X297185000Y-111395000D03*
D10*
X105379000Y-116470000D03*
D11*
X110459000Y-116470000D03*
D10*
X115539000Y-116470000D03*
D12*
X106649000Y-113930000D03*
X112999000Y-111390000D03*
D10*
X264162000Y-97425000D03*
D11*
X269242000Y-97425000D03*
D10*
X274322000Y-97425000D03*
D12*
X265432000Y-94885000D03*
X271782000Y-92345000D03*
D15*
X204450000Y-61225000D03*
D16*
X204450000Y-63765000D03*
X204450000Y-66305000D03*
X204450000Y-68845000D03*
X204450000Y-71385000D03*
X204450000Y-73925000D03*
X204450000Y-76465000D03*
X204450000Y-79005000D03*
X204450000Y-81545000D03*
X204450000Y-84085000D03*
X204450000Y-86625000D03*
X204678600Y-89165000D03*
X219690000Y-89165000D03*
X219690000Y-86625000D03*
X219690000Y-84085000D03*
X219690000Y-81545000D03*
X219690000Y-79005000D03*
X219690000Y-76465000D03*
X219690000Y-73925000D03*
X219690000Y-71385000D03*
X219690000Y-68845000D03*
X219690000Y-66305000D03*
X219690000Y-63765000D03*
X219690000Y-61225000D03*
X206990000Y-89165000D03*
X209530000Y-89165000D03*
X212070000Y-89165000D03*
X214610000Y-89165000D03*
X217150000Y-89165000D03*
D10*
X238768200Y-135525000D03*
D11*
X243848200Y-135525000D03*
D10*
X248928200Y-135525000D03*
D12*
X240038200Y-132985000D03*
X246388200Y-130445000D03*
D10*
X206982000Y-97425000D03*
D11*
X212062000Y-97425000D03*
D10*
X217142000Y-97425000D03*
D12*
X208252000Y-94885000D03*
X214602000Y-92345000D03*
D10*
X124479000Y-116470000D03*
D11*
X129559000Y-116470000D03*
D10*
X134639000Y-116470000D03*
D12*
X125749000Y-113930000D03*
X132099000Y-111390000D03*
D10*
X49812000Y-154575000D03*
D11*
X54892000Y-154575000D03*
D10*
X59972000Y-154575000D03*
D12*
X51082000Y-152035000D03*
X57432000Y-149495000D03*
D10*
X162579000Y-116475000D03*
D11*
X167659000Y-116475000D03*
D10*
X172739000Y-116475000D03*
D12*
X163849000Y-113935000D03*
X170199000Y-111395000D03*
D10*
X45052000Y-73639900D03*
D11*
X50132000Y-73639900D03*
D10*
X55212000Y-73639900D03*
D12*
X46322000Y-71099900D03*
X52672000Y-68559900D03*
D10*
X213380000Y-116480000D03*
D11*
X218460000Y-116480000D03*
D10*
X223540000Y-116480000D03*
D12*
X214650000Y-113940000D03*
X221000000Y-111400000D03*
D10*
X335602100Y-116450000D03*
D11*
X340682100Y-116450000D03*
D10*
X345762100Y-116450000D03*
D12*
X336872100Y-113910000D03*
X343222100Y-111370000D03*
D10*
X226037000Y-154570000D03*
D11*
X231117000Y-154570000D03*
D10*
X236197000Y-154570000D03*
D12*
X227307000Y-152030000D03*
X233657000Y-149490000D03*
D10*
X143529000Y-116470000D03*
D11*
X148609000Y-116470000D03*
D10*
X153689000Y-116470000D03*
D12*
X144799000Y-113930000D03*
X151149000Y-111390000D03*
D10*
X335597100Y-135495000D03*
D11*
X340677100Y-135495000D03*
D10*
X345757100Y-135495000D03*
D12*
X336867100Y-132955000D03*
X343217100Y-130415000D03*
D10*
X354632100Y-173600000D03*
D11*
X359712100Y-173600000D03*
D10*
X364792100Y-173600000D03*
D12*
X355902100Y-171060000D03*
X362252100Y-168520000D03*
D10*
X121257000Y-73614900D03*
D11*
X126337000Y-73614900D03*
D10*
X131417000Y-73614900D03*
D12*
X122527000Y-71074900D03*
X128877000Y-68534900D03*
D10*
X335602100Y-73614900D03*
D11*
X340682100Y-73614900D03*
D10*
X345762100Y-73614900D03*
D12*
X336872100Y-71074900D03*
X343222100Y-68534900D03*
D10*
X130782000Y-97425000D03*
D11*
X135862000Y-97425000D03*
D10*
X140942000Y-97425000D03*
D12*
X132052000Y-94885000D03*
X138402000Y-92345000D03*
D10*
X47432000Y-173625000D03*
D11*
X52512000Y-173625000D03*
D10*
X57592000Y-173625000D03*
D12*
X48702000Y-171085000D03*
X55052000Y-168545000D03*
D10*
X373702100Y-97400000D03*
D11*
X378782100Y-97400000D03*
D10*
X383862100Y-97400000D03*
D12*
X374972100Y-94860000D03*
X381322100Y-92320000D03*
D10*
X373687100Y-173600000D03*
D11*
X378767100Y-173600000D03*
D10*
X383847100Y-173600000D03*
D12*
X374957100Y-171060000D03*
X381307100Y-168520000D03*
D10*
X73622000Y-97425000D03*
D11*
X78702000Y-97425000D03*
D10*
X83782000Y-97425000D03*
D12*
X74892000Y-94885000D03*
X81242000Y-92345000D03*
D10*
X187917000Y-173620000D03*
D11*
X192997000Y-173620000D03*
D10*
X198077000Y-173620000D03*
D12*
X189187000Y-171080000D03*
X195537000Y-168540000D03*
D10*
X268897000Y-173625000D03*
D11*
X273977000Y-173625000D03*
D10*
X279057000Y-173625000D03*
D12*
X270167000Y-171085000D03*
X276517000Y-168545000D03*
D13*
X171556000Y-147580000D03*
D14*
X171556000Y-162790000D03*
D13*
X195432000Y-147580000D03*
D14*
X195432000Y-162790000D03*
D10*
X292757000Y-73614900D03*
D11*
X297837000Y-73614900D03*
D10*
X302917000Y-73614900D03*
D12*
X294027000Y-71074900D03*
X300377000Y-68534900D03*
D10*
X307027000Y-97420000D03*
D11*
X312107000Y-97420000D03*
D10*
X317187000Y-97420000D03*
D12*
X308297000Y-94880000D03*
X314647000Y-92340000D03*
D10*
X310205000Y-116475000D03*
D11*
X315285000Y-116475000D03*
D10*
X320365000Y-116475000D03*
D12*
X311475000Y-113935000D03*
X317825000Y-111395000D03*
D10*
X200673200Y-135530000D03*
D11*
X205753200Y-135530000D03*
D10*
X210833200Y-135530000D03*
D12*
X201943200Y-132990000D03*
X208293200Y-130450000D03*
D10*
X226042000Y-73614900D03*
D11*
X231122000Y-73614900D03*
D10*
X236202000Y-73614900D03*
D12*
X227312000Y-71074900D03*
X233662000Y-68534900D03*
D10*
X354647100Y-135495000D03*
D11*
X359727100Y-135495000D03*
D10*
X364807100Y-135495000D03*
D12*
X355917100Y-132955000D03*
X362267100Y-130415000D03*
D10*
X206992000Y-73614900D03*
D11*
X212072000Y-73614900D03*
D10*
X217152000Y-73614900D03*
D12*
X208262000Y-71074900D03*
X214612000Y-68534900D03*
D10*
X79970800Y-135525000D03*
D11*
X85050800Y-135525000D03*
D10*
X90130800Y-135525000D03*
D12*
X81240800Y-132985000D03*
X87590800Y-130445000D03*
D10*
X354662100Y-97400000D03*
D11*
X359742100Y-97400000D03*
D10*
X364822100Y-97400000D03*
D12*
X355932100Y-94860000D03*
X362282100Y-92320000D03*
D10*
X73627000Y-154580000D03*
D11*
X78707000Y-154580000D03*
D10*
X83787000Y-154580000D03*
D12*
X74897000Y-152040000D03*
X81247000Y-149500000D03*
D10*
X68857000Y-173620000D03*
D11*
X73937000Y-173620000D03*
D10*
X79017000Y-173620000D03*
D12*
X70127000Y-171080000D03*
X76477000Y-168540000D03*
D10*
X245102000Y-97425000D03*
D11*
X250182000Y-97425000D03*
D10*
X255262000Y-97425000D03*
D12*
X246372000Y-94885000D03*
X252722000Y-92345000D03*
D10*
X245077000Y-154570000D03*
D11*
X250157000Y-154570000D03*
D10*
X255237000Y-154570000D03*
D12*
X246347000Y-152030000D03*
X252697000Y-149490000D03*
D10*
X168892000Y-73614900D03*
D11*
X173972000Y-73614900D03*
D10*
X179052000Y-73614900D03*
D12*
X170162000Y-71074900D03*
X176512000Y-68534900D03*
D10*
X194335000Y-116480000D03*
D11*
X199415000Y-116480000D03*
D10*
X204495000Y-116480000D03*
D12*
X195605000Y-113940000D03*
X201955000Y-111400000D03*
D10*
X264137000Y-154570000D03*
D11*
X269217000Y-154570000D03*
D10*
X274297000Y-154570000D03*
D12*
X265407000Y-152030000D03*
X271757000Y-149490000D03*
D10*
X83157000Y-73614900D03*
D11*
X88237000Y-73614900D03*
D10*
X93317000Y-73614900D03*
D12*
X84427000Y-71074900D03*
X90777000Y-68534900D03*
D10*
X149827000Y-154570000D03*
D11*
X154907000Y-154570000D03*
D10*
X159987000Y-154570000D03*
D12*
X151097000Y-152030000D03*
X157447000Y-149490000D03*
D10*
X178407000Y-154570000D03*
D11*
X183487000Y-154570000D03*
D10*
X188567000Y-154570000D03*
D12*
X179677000Y-152030000D03*
X186027000Y-149490000D03*
D10*
X335602100Y-97400000D03*
D11*
X340682100Y-97400000D03*
D10*
X345762100Y-97400000D03*
D12*
X336872100Y-94860000D03*
X343222100Y-92320000D03*
D10*
X187942000Y-73614900D03*
D11*
X193022000Y-73614900D03*
D10*
X198102000Y-73614900D03*
D12*
X189212000Y-71074900D03*
X195562000Y-68534900D03*
D10*
X373702100Y-135495000D03*
D11*
X378782100Y-135495000D03*
D10*
X383862100Y-135495000D03*
D12*
X374972100Y-132955000D03*
X381322100Y-130415000D03*
D10*
X149832000Y-97425000D03*
D11*
X154912000Y-97425000D03*
D10*
X159992000Y-97425000D03*
D12*
X151102000Y-94885000D03*
X157452000Y-92345000D03*
D10*
X307017000Y-154570000D03*
D11*
X312097000Y-154570000D03*
D10*
X317177000Y-154570000D03*
D12*
X308287000Y-152030000D03*
X314637000Y-149490000D03*
D17*
X263517000Y-83114900D03*
D18*
X255897000Y-83114900D03*
D17*
X247627000Y-144975000D03*
D18*
X240007000Y-144975000D03*
D17*
X260367000Y-125950000D03*
D18*
X252747000Y-125950000D03*
D17*
X273017000Y-164100000D03*
D18*
X265397000Y-164100000D03*
D17*
X312717000Y-145050000D03*
D18*
X305097000Y-145050000D03*
D17*
X315937000Y-106950000D03*
D18*
X308317000Y-106950000D03*
D17*
X382592100Y-125990000D03*
D18*
X374972100Y-125990000D03*
D17*
X95227000Y-125960000D03*
D18*
X87607000Y-125960000D03*
D17*
X196817000Y-106950000D03*
D18*
X189197000Y-106950000D03*
D17*
X177772000Y-83104900D03*
D18*
X170152000Y-83104900D03*
D17*
X228592000Y-145050000D03*
D18*
X220972000Y-145050000D03*
D17*
X56327000Y-183150000D03*
D18*
X48707000Y-183150000D03*
D17*
X55507000Y-125990000D03*
D18*
X47887000Y-125990000D03*
D17*
X222267000Y-126030000D03*
D18*
X214647000Y-126030000D03*
D17*
X285727000Y-145000000D03*
D18*
X278107000Y-145000000D03*
D17*
X363542100Y-125940000D03*
D18*
X355922100Y-125940000D03*
D17*
X158707000Y-106940000D03*
D18*
X151087000Y-106940000D03*
D17*
X215872000Y-81814900D03*
D18*
X208252000Y-81814900D03*
D17*
X92047000Y-83104900D03*
D18*
X84427000Y-83104900D03*
D17*
X76177000Y-126010000D03*
D18*
X68557000Y-126010000D03*
D17*
X58707000Y-106980000D03*
D18*
X51087000Y-106980000D03*
D17*
X344482100Y-106950000D03*
D18*
X336862100Y-106950000D03*
D17*
X165092000Y-145075000D03*
D18*
X157472000Y-145075000D03*
D17*
X139677000Y-106960000D03*
D18*
X132057000Y-106960000D03*
D17*
X53927000Y-83214900D03*
D18*
X46307000Y-83214900D03*
D17*
X253967000Y-164100000D03*
D18*
X246347000Y-164100000D03*
D17*
X171464000Y-126000000D03*
D18*
X163844000Y-126000000D03*
D17*
X344487100Y-183125000D03*
D18*
X336867100Y-183125000D03*
D17*
X241300000Y-126050000D03*
D18*
X233680000Y-126050000D03*
D17*
X344492100Y-125900000D03*
D18*
X336872100Y-125900000D03*
D17*
X301597000Y-83164900D03*
D18*
X293977000Y-83164900D03*
D17*
X152407000Y-125970000D03*
D18*
X144787000Y-125970000D03*
D17*
X120607000Y-164125000D03*
D18*
X112987000Y-164125000D03*
D17*
X130127000Y-83114900D03*
D18*
X122507000Y-83114900D03*
D17*
X363537100Y-164070000D03*
D18*
X355917100Y-164070000D03*
D17*
X96792000Y-183200000D03*
D18*
X89172000Y-183200000D03*
D17*
X158717000Y-164075000D03*
D18*
X151097000Y-164075000D03*
D17*
X215892000Y-164125000D03*
D18*
X208272000Y-164125000D03*
D17*
X187292000Y-164075000D03*
D18*
X179672000Y-164075000D03*
D17*
X215887000Y-106960000D03*
D18*
X208267000Y-106960000D03*
D17*
X196797000Y-183150000D03*
D18*
X189177000Y-183150000D03*
D17*
X58702000Y-164075000D03*
D18*
X51082000Y-164075000D03*
D17*
X363582100Y-83114900D03*
D18*
X355962100Y-83114900D03*
D17*
X61902000Y-145025000D03*
D18*
X54282000Y-145025000D03*
D17*
X292092000Y-164075000D03*
D18*
X284472000Y-164075000D03*
D17*
X101567000Y-164100000D03*
D18*
X93947000Y-164100000D03*
D17*
X382572100Y-145050000D03*
D18*
X374952100Y-145050000D03*
D17*
X363552100Y-106900000D03*
D18*
X355932100Y-106900000D03*
D17*
X320707000Y-83164900D03*
D18*
X313087000Y-83164900D03*
D17*
X363542100Y-145010000D03*
D18*
X355922100Y-145010000D03*
D17*
X363497100Y-183075000D03*
D18*
X355877100Y-183075000D03*
D17*
X114267000Y-125930000D03*
D18*
X106647000Y-125930000D03*
D17*
X82517000Y-106960000D03*
D18*
X74897000Y-106960000D03*
D17*
X77742000Y-183150000D03*
D18*
X70122000Y-183150000D03*
D17*
X382562100Y-183150000D03*
D18*
X374942100Y-183150000D03*
D17*
X292117000Y-106950000D03*
D18*
X284497000Y-106950000D03*
D17*
X266727000Y-145050000D03*
D18*
X259107000Y-145050000D03*
D17*
X273037000Y-106980000D03*
D18*
X265417000Y-106980000D03*
D17*
X279407000Y-126010000D03*
D18*
X271787000Y-126010000D03*
D17*
X277807000Y-183200000D03*
D18*
X270187000Y-183200000D03*
D17*
X118227000Y-183225000D03*
D18*
X110607000Y-183225000D03*
D17*
X382562100Y-83174900D03*
D18*
X374942100Y-83174900D03*
D17*
X126892000Y-145050000D03*
D18*
X119272000Y-145050000D03*
D17*
X344482100Y-83094900D03*
D18*
X336862100Y-83094900D03*
D17*
X107917000Y-145050000D03*
D18*
X100297000Y-145050000D03*
D17*
X196842000Y-83104900D03*
D18*
X189222000Y-83104900D03*
D17*
X319097000Y-125960000D03*
D18*
X311477000Y-125960000D03*
D17*
X120627000Y-106950000D03*
D18*
X113007000Y-106950000D03*
D17*
X146017000Y-145050000D03*
D18*
X138397000Y-145050000D03*
D17*
X82517000Y-164095000D03*
D18*
X74897000Y-164095000D03*
D17*
X133364000Y-126000000D03*
D18*
X125744000Y-126000000D03*
D17*
X382592100Y-106940000D03*
D18*
X374972100Y-106940000D03*
D17*
X282587000Y-83144900D03*
D18*
X274967000Y-83144900D03*
D17*
X187317000Y-145025000D03*
D18*
X179697000Y-145025000D03*
D17*
X315902000Y-164075000D03*
D18*
X308282000Y-164075000D03*
D17*
X209592000Y-145125000D03*
D18*
X201972000Y-145125000D03*
D17*
X234932000Y-83134900D03*
D18*
X227312000Y-83134900D03*
D17*
X139667000Y-164100000D03*
D18*
X132047000Y-164100000D03*
D17*
X234927000Y-164075000D03*
D18*
X227307000Y-164075000D03*
D17*
X298477000Y-126010000D03*
D18*
X290857000Y-126010000D03*
D17*
X88867000Y-145125000D03*
D18*
X81247000Y-145125000D03*
D17*
X253987000Y-106930000D03*
D18*
X246367000Y-106930000D03*
D17*
X203227000Y-126120000D03*
D18*
X195607000Y-126120000D03*
D17*
X111087000Y-83104900D03*
D18*
X103467000Y-83104900D03*
D17*
X234947000Y-106920000D03*
D18*
X227327000Y-106920000D03*
D17*
X101597000Y-106930000D03*
D18*
X93977000Y-106930000D03*
D17*
X177777000Y-106960000D03*
D18*
X170157000Y-106960000D03*
D17*
X149157000Y-83134900D03*
D18*
X141537000Y-83134900D03*
D17*
X318257000Y-183225000D03*
D18*
X310637000Y-183225000D03*
D17*
X296817000Y-183175000D03*
D18*
X289197000Y-183175000D03*
D17*
X344472100Y-145040000D03*
D18*
X336852100Y-145040000D03*
D17*
X256342000Y-183200000D03*
D18*
X248722000Y-183200000D03*
M02*
