M48
; DRILL file {KiCad 8.0.0} date 2024-03-22T18:52:25-0400
; FORMAT={-:-/ absolute / metric / decimal}
; #@! TF.CreationDate,2024-03-22T18:52:25-04:00
; #@! TF.GenerationSoftware,Kicad,Pcbnew,8.0.0
; #@! TF.FileFunction,NonPlated,1,2,NPTH
FMAT,2
METRIC
; #@! TA.AperFunction,NonPlated,NPTH,ComponentDrill
T1C1.750
; #@! TA.AperFunction,NonPlated,NPTH,ComponentDrill
T2C3.048
; #@! TA.AperFunction,NonPlated,NPTH,ComponentDrill
T3C3.988
; #@! TA.AperFunction,NonPlated,NPTH,ComponentDrill
T4C4.000
%
G90
G05
T1
X45.052Y-73.64
X46.634Y-116.47
X47.432Y-173.625
X49.812Y-97.425
X49.812Y-154.575
X52.981Y-135.525
X55.212Y-73.64
X56.794Y-116.47
X57.592Y-173.625
X59.972Y-97.425
X59.972Y-154.575
X63.141Y-135.525
X67.274Y-116.475
X68.857Y-173.62
X73.622Y-97.425
X73.627Y-154.58
X77.434Y-116.475
X79.017Y-173.62
X79.971Y-135.525
X83.157Y-73.615
X83.782Y-97.425
X83.787Y-154.58
X86.339Y-116.475
X87.907Y-173.63
X90.131Y-135.525
X92.672Y-97.425
X92.677Y-154.58
X93.317Y-73.615
X96.499Y-116.475
X98.067Y-173.63
X99.021Y-135.525
X102.197Y-73.615
X102.832Y-97.425
X102.837Y-154.58
X105.379Y-116.47
X109.181Y-135.525
X109.337Y-173.63
X111.732Y-97.425
X111.732Y-154.575
X112.357Y-73.615
X115.539Y-116.47
X118.076Y-135.525
X119.497Y-173.63
X121.257Y-73.615
X121.892Y-97.425
X121.892Y-154.575
X124.479Y-116.47
X128.236Y-135.525
X130.777Y-154.57
X130.782Y-97.425
X131.417Y-73.615
X134.639Y-116.47
X137.131Y-135.52
X140.297Y-73.615
X140.937Y-154.57
X140.942Y-97.425
X143.529Y-116.47
X147.291Y-135.52
X149.827Y-154.57
X149.832Y-97.425
X150.457Y-73.615
X153.689Y-116.47
X156.176Y-135.52
X159.987Y-154.57
X159.992Y-97.425
X162.579Y-116.475
X166.336Y-135.52
X168.882Y-97.425
X168.892Y-73.615
X172.739Y-116.475
X178.407Y-154.57
X178.432Y-135.53
X179.042Y-97.425
X179.052Y-73.615
X187.917Y-173.62
X187.932Y-97.425
X187.942Y-73.615
X188.567Y-154.57
X188.592Y-135.53
X194.335Y-116.48
X198.077Y-173.62
X198.092Y-97.425
X198.102Y-73.615
X200.673Y-135.53
X204.495Y-116.48
X206.982Y-97.425
X206.987Y-154.57
X206.992Y-73.615
X210.833Y-135.53
X213.38Y-116.48
X217.142Y-97.425
X217.147Y-154.57
X217.152Y-73.615
X219.718Y-135.53
X223.54Y-116.48
X226.037Y-154.57
X226.042Y-73.615
X226.042Y-97.425
X229.878Y-135.53
X232.425Y-116.47
X236.197Y-154.57
X236.202Y-73.615
X236.202Y-97.425
X238.768Y-135.525
X242.585Y-116.47
X245.077Y-154.57
X245.102Y-97.425
X247.462Y-173.625
X248.928Y-135.525
X251.47Y-116.475
X254.667Y-73.615
X255.237Y-154.57
X255.262Y-97.425
X257.622Y-173.625
X257.808Y-135.535
X261.63Y-116.475
X264.137Y-154.57
X264.162Y-97.425
X264.827Y-73.615
X267.968Y-135.535
X268.897Y-173.625
X270.515Y-116.475
X273.717Y-73.615
X274.297Y-154.57
X274.322Y-97.425
X276.848Y-135.535
X279.057Y-173.625
X280.675Y-116.475
X283.197Y-154.57
X283.222Y-97.425
X283.877Y-73.615
X287.008Y-135.535
X287.947Y-173.625
X289.565Y-116.475
X292.757Y-73.615
X293.357Y-154.57
X293.382Y-97.425
X298.107Y-173.625
X299.725Y-116.475
X302.917Y-73.615
X303.833Y-135.53
X307.017Y-154.57
X307.027Y-97.42
X309.387Y-173.625
X310.205Y-116.475
X311.807Y-73.615
X313.993Y-135.53
X317.177Y-154.57
X317.187Y-97.42
X319.547Y-173.625
X320.365Y-116.475
X321.967Y-73.615
X335.582Y-173.6
X335.597Y-135.495
X335.602Y-73.615
X335.602Y-97.4
X335.602Y-116.45
X345.742Y-173.6
X345.757Y-135.495
X345.762Y-73.615
X345.762Y-97.4
X345.762Y-116.45
X354.632Y-154.55
X354.632Y-173.6
X354.647Y-135.495
X354.652Y-116.44
X354.662Y-97.4
X354.682Y-73.615
X364.792Y-154.55
X364.792Y-173.6
X364.807Y-135.495
X364.812Y-116.44
X364.822Y-97.4
X364.842Y-73.615
X373.682Y-73.615
X373.687Y-173.6
X373.702Y-97.4
X373.702Y-116.44
X373.702Y-135.495
X383.842Y-73.615
X383.847Y-173.6
X383.862Y-97.4
X383.862Y-116.44
X383.862Y-135.495
T2
X135.807Y-166.585
X171.556Y-147.58
X195.432Y-147.58
X231.057Y-166.585
T3
X135.807Y-181.795
X171.556Y-162.79
X195.432Y-162.79
X231.057Y-181.795
T4
X50.132Y-73.64
X51.714Y-116.47
X52.512Y-173.625
X54.892Y-97.425
X54.892Y-154.575
X58.061Y-135.525
X72.354Y-116.475
X73.937Y-173.62
X78.702Y-97.425
X78.707Y-154.58
X85.051Y-135.525
X88.237Y-73.615
X91.419Y-116.475
X92.987Y-173.63
X97.752Y-97.425
X97.757Y-154.58
X104.101Y-135.525
X107.277Y-73.615
X110.459Y-116.47
X114.417Y-173.63
X116.812Y-97.425
X116.812Y-154.575
X123.156Y-135.525
X126.337Y-73.615
X129.559Y-116.47
X135.857Y-154.57
X135.862Y-97.425
X142.211Y-135.52
X145.377Y-73.615
X148.609Y-116.47
X154.907Y-154.57
X154.912Y-97.425
X161.256Y-135.52
X167.659Y-116.475
X173.962Y-97.425
X173.972Y-73.615
X183.487Y-154.57
X183.512Y-135.53
X192.997Y-173.62
X193.012Y-97.425
X193.022Y-73.615
X199.415Y-116.48
X205.753Y-135.53
X212.062Y-97.425
X212.067Y-154.57
X212.072Y-73.615
X218.46Y-116.48
X224.798Y-135.53
X231.117Y-154.57
X231.122Y-73.615
X231.122Y-97.425
X237.505Y-116.47
X243.848Y-135.525
X250.157Y-154.57
X250.182Y-97.425
X252.542Y-173.625
X256.55Y-116.475
X259.747Y-73.615
X262.888Y-135.535
X269.217Y-154.57
X269.242Y-97.425
X273.977Y-173.625
X275.595Y-116.475
X278.797Y-73.615
X281.928Y-135.535
X288.277Y-154.57
X288.302Y-97.425
X293.027Y-173.625
X294.645Y-116.475
X297.837Y-73.615
X308.913Y-135.53
X312.097Y-154.57
X312.107Y-97.42
X314.467Y-173.625
X315.285Y-116.475
X316.887Y-73.615
X340.662Y-173.6
X340.677Y-135.495
X340.682Y-73.615
X340.682Y-97.4
X340.682Y-116.45
X359.712Y-154.55
X359.712Y-173.6
X359.727Y-135.495
X359.732Y-116.44
X359.742Y-97.4
X359.762Y-73.615
X378.762Y-73.615
X378.767Y-173.6
X378.782Y-97.4
X378.782Y-116.44
X378.782Y-135.495
M30
