M48
; DRILL file {KiCad 8.0.0} date 2024-03-22T18:52:25-0400
; FORMAT={-:-/ absolute / metric / decimal}
; #@! TF.CreationDate,2024-03-22T18:52:25-04:00
; #@! TF.GenerationSoftware,Kicad,Pcbnew,8.0.0
; #@! TF.FileFunction,Plated,1,2,PTH
FMAT,2
METRIC
; #@! TA.AperFunction,Plated,PTH,ViaDrill
T1C0.300
; #@! TA.AperFunction,Plated,PTH,ComponentDrill
T2C0.800
; #@! TA.AperFunction,Plated,PTH,ComponentDrill
T3C1.092
; #@! TA.AperFunction,Plated,PTH,ComponentDrill
T4C1.500
%
G90
G05
T1
X198.19Y-159.2
X208.75Y-85.05
T2
X46.307Y-83.215
X47.887Y-125.99
X48.707Y-183.15
X51.082Y-164.075
X51.087Y-106.98
X53.927Y-83.215
X54.282Y-145.025
X55.507Y-125.99
X56.327Y-183.15
X58.702Y-164.075
X58.707Y-106.98
X61.902Y-145.025
X68.557Y-126.01
X70.122Y-183.15
X74.897Y-106.96
X74.897Y-164.095
X76.177Y-126.01
X77.742Y-183.15
X81.247Y-145.125
X82.517Y-106.96
X82.517Y-164.095
X84.427Y-83.105
X87.607Y-125.96
X88.867Y-145.125
X89.172Y-183.2
X92.047Y-83.105
X93.947Y-164.1
X93.977Y-106.93
X95.227Y-125.96
X96.792Y-183.2
X100.297Y-145.05
X101.567Y-164.1
X101.597Y-106.93
X103.467Y-83.105
X106.647Y-125.93
X107.917Y-145.05
X110.607Y-183.225
X111.087Y-83.105
X112.987Y-164.125
X113.007Y-106.95
X114.267Y-125.93
X118.227Y-183.225
X119.272Y-145.05
X120.607Y-164.125
X120.627Y-106.95
X122.507Y-83.115
X125.744Y-126.0
X126.892Y-145.05
X130.127Y-83.115
X132.047Y-164.1
X132.057Y-106.96
X133.364Y-126.0
X138.397Y-145.05
X139.667Y-164.1
X139.677Y-106.96
X141.537Y-83.135
X144.787Y-125.97
X146.017Y-145.05
X149.157Y-83.135
X151.087Y-106.94
X151.097Y-164.075
X152.407Y-125.97
X157.472Y-145.075
X158.707Y-106.94
X158.717Y-164.075
X163.844Y-126.0
X165.092Y-145.075
X170.152Y-83.105
X170.157Y-106.96
X171.464Y-126.0
X177.772Y-83.105
X177.777Y-106.96
X179.672Y-164.075
X179.697Y-145.025
X187.292Y-164.075
X187.317Y-145.025
X189.177Y-183.15
X189.197Y-106.95
X189.222Y-83.105
X195.607Y-126.12
X196.797Y-183.15
X196.817Y-106.95
X196.842Y-83.105
X201.972Y-145.125
X203.227Y-126.12
X208.252Y-81.815
X208.267Y-106.96
X208.272Y-164.125
X209.592Y-145.125
X214.647Y-126.03
X215.872Y-81.815
X215.887Y-106.96
X215.892Y-164.125
X220.972Y-145.05
X222.267Y-126.03
X227.307Y-164.075
X227.312Y-83.135
X227.327Y-106.92
X228.592Y-145.05
X233.68Y-126.05
X234.927Y-164.075
X234.932Y-83.135
X234.947Y-106.92
X240.007Y-144.975
X241.3Y-126.05
X246.347Y-164.1
X246.367Y-106.93
X247.627Y-144.975
X248.722Y-183.2
X252.747Y-125.95
X253.967Y-164.1
X253.987Y-106.93
X255.897Y-83.115
X256.342Y-183.2
X259.107Y-145.05
X260.367Y-125.95
X263.517Y-83.115
X265.397Y-164.1
X265.417Y-106.98
X266.727Y-145.05
X270.187Y-183.2
X271.787Y-126.01
X273.017Y-164.1
X273.037Y-106.98
X274.967Y-83.145
X277.807Y-183.2
X278.107Y-145.0
X279.407Y-126.01
X282.587Y-83.145
X284.472Y-164.075
X284.497Y-106.95
X285.727Y-145.0
X289.197Y-183.175
X290.857Y-126.01
X292.092Y-164.075
X292.117Y-106.95
X293.977Y-83.165
X296.817Y-183.175
X298.477Y-126.01
X301.597Y-83.165
X305.097Y-145.05
X308.282Y-164.075
X308.317Y-106.95
X310.637Y-183.225
X311.477Y-125.96
X312.717Y-145.05
X313.087Y-83.165
X315.902Y-164.075
X315.937Y-106.95
X318.257Y-183.225
X319.097Y-125.96
X320.707Y-83.165
X336.852Y-145.04
X336.862Y-83.095
X336.862Y-106.95
X336.867Y-183.125
X336.872Y-125.9
X344.472Y-145.04
X344.482Y-83.095
X344.482Y-106.95
X344.487Y-183.125
X344.492Y-125.9
X355.877Y-183.075
X355.917Y-164.07
X355.922Y-125.94
X355.922Y-145.01
X355.932Y-106.9
X355.962Y-83.115
X363.497Y-183.075
X363.537Y-164.07
X363.542Y-125.94
X363.542Y-145.01
X363.552Y-106.9
X363.582Y-83.115
X374.942Y-83.175
X374.942Y-183.15
X374.952Y-145.05
X374.972Y-106.94
X374.972Y-125.99
X382.562Y-83.175
X382.562Y-183.15
X382.572Y-145.05
X382.592Y-106.94
X382.592Y-125.99
T3
X204.45Y-61.225
X204.45Y-63.765
X204.45Y-66.305
X204.45Y-68.845
X204.45Y-71.385
X204.45Y-73.925
X204.45Y-76.465
X204.45Y-79.005
X204.45Y-81.545
X204.45Y-84.085
X204.45Y-86.625
X204.679Y-89.165
X206.99Y-89.165
X209.53Y-89.165
X212.07Y-89.165
X214.61Y-89.165
X217.15Y-89.165
X219.69Y-61.225
X219.69Y-63.765
X219.69Y-66.305
X219.69Y-68.845
X219.69Y-71.385
X219.69Y-73.925
X219.69Y-76.465
X219.69Y-79.005
X219.69Y-81.545
X219.69Y-84.085
X219.69Y-86.625
X219.69Y-89.165
T4
X46.322Y-71.1
X47.904Y-113.93
X48.702Y-171.085
X51.082Y-94.885
X51.082Y-152.035
X52.672Y-68.56
X54.251Y-132.985
X54.254Y-111.39
X55.052Y-168.545
X57.432Y-92.345
X57.432Y-149.495
X60.601Y-130.445
X68.544Y-113.935
X70.127Y-171.08
X74.892Y-94.885
X74.894Y-111.395
X74.897Y-152.04
X76.477Y-168.54
X81.241Y-132.985
X81.242Y-92.345
X81.247Y-149.5
X84.427Y-71.075
X87.591Y-130.445
X87.609Y-113.935
X89.177Y-171.09
X90.777Y-68.535
X93.942Y-94.885
X93.947Y-152.04
X93.959Y-111.395
X95.527Y-168.55
X100.291Y-132.985
X100.292Y-92.345
X100.297Y-149.5
X103.467Y-71.075
X106.641Y-130.445
X106.649Y-113.93
X109.817Y-68.535
X110.607Y-171.09
X112.999Y-111.39
X113.002Y-94.885
X113.002Y-152.035
X116.957Y-168.55
X119.346Y-132.985
X119.352Y-92.345
X119.352Y-149.495
X122.527Y-71.075
X125.696Y-130.445
X125.749Y-113.93
X128.877Y-68.535
X132.047Y-152.03
X132.052Y-94.885
X132.099Y-111.39
X138.397Y-149.49
X138.401Y-132.98
X138.402Y-92.345
X141.567Y-71.075
X144.751Y-130.44
X144.799Y-113.93
X147.917Y-68.535
X151.097Y-152.03
X151.102Y-94.885
X151.149Y-111.39
X157.446Y-132.98
X157.447Y-149.49
X157.452Y-92.345
X163.796Y-130.44
X163.849Y-113.935
X170.152Y-94.885
X170.162Y-71.075
X170.199Y-111.395
X176.502Y-92.345
X176.512Y-68.535
X179.677Y-152.03
X179.702Y-132.99
X186.027Y-149.49
X186.052Y-130.45
X189.187Y-171.08
X189.202Y-94.885
X189.212Y-71.075
X195.537Y-168.54
X195.552Y-92.345
X195.562Y-68.535
X195.605Y-113.94
X201.943Y-132.99
X201.955Y-111.4
X208.252Y-94.885
X208.257Y-152.03
X208.262Y-71.075
X208.293Y-130.45
X214.602Y-92.345
X214.607Y-149.49
X214.612Y-68.535
X214.65Y-113.94
X220.988Y-132.99
X221.0Y-111.4
X227.307Y-152.03
X227.312Y-71.075
X227.312Y-94.885
X227.338Y-130.45
X233.657Y-149.49
X233.662Y-68.535
X233.662Y-92.345
X233.695Y-113.93
X240.038Y-132.985
X240.045Y-111.39
X246.347Y-152.03
X246.372Y-94.885
X246.388Y-130.445
X248.732Y-171.085
X252.697Y-149.49
X252.722Y-92.345
X252.74Y-113.935
X255.082Y-168.545
X255.937Y-71.075
X259.078Y-132.995
X259.09Y-111.395
X262.287Y-68.535
X265.407Y-152.03
X265.428Y-130.455
X265.432Y-94.885
X270.167Y-171.085
X271.757Y-149.49
X271.782Y-92.345
X271.785Y-113.935
X274.987Y-71.075
X276.517Y-168.545
X278.118Y-132.995
X278.135Y-111.395
X281.337Y-68.535
X284.467Y-152.03
X284.468Y-130.455
X284.492Y-94.885
X289.217Y-171.085
X290.817Y-149.49
X290.835Y-113.935
X290.842Y-92.345
X294.027Y-71.075
X295.567Y-168.545
X297.185Y-111.395
X300.377Y-68.535
X305.103Y-132.99
X308.287Y-152.03
X308.297Y-94.88
X310.657Y-171.085
X311.453Y-130.45
X311.475Y-113.935
X313.077Y-71.075
X314.637Y-149.49
X314.647Y-92.34
X317.007Y-168.545
X317.825Y-111.395
X319.427Y-68.535
X336.852Y-171.06
X336.867Y-132.955
X336.872Y-71.075
X336.872Y-94.86
X336.872Y-113.91
X343.202Y-168.52
X343.217Y-130.415
X343.222Y-68.535
X343.222Y-92.32
X343.222Y-111.37
X355.902Y-152.01
X355.902Y-171.06
X355.917Y-132.955
X355.922Y-113.9
X355.932Y-94.86
X355.952Y-71.075
X362.252Y-149.47
X362.252Y-168.52
X362.267Y-130.415
X362.272Y-111.36
X362.282Y-92.32
X362.302Y-68.535
X374.952Y-71.075
X374.957Y-171.06
X374.972Y-94.86
X374.972Y-113.9
X374.972Y-132.955
X381.302Y-68.535
X381.307Y-168.52
X381.322Y-92.32
X381.322Y-111.36
X381.322Y-130.415
M30
