G04 #@! TF.GenerationSoftware,KiCad,Pcbnew,8.0.0*
G04 #@! TF.CreationDate,2024-03-22T18:47:31-04:00*
G04 #@! TF.ProjectId,postmech2.1,706f7374-6d65-4636-9832-2e312e6b6963,2.1*
G04 #@! TF.SameCoordinates,Original*
G04 #@! TF.FileFunction,Profile,NP*
%FSLAX46Y46*%
G04 Gerber Fmt 4.6, Leading zero omitted, Abs format (unit mm)*
G04 Created by KiCad (PCBNEW 8.0.0) date 2024-03-22 18:47:31*
%MOMM*%
%LPD*%
G01*
G04 APERTURE LIST*
G04 #@! TA.AperFunction,Profile*
%ADD10C,0.050000*%
G04 #@! TD*
G04 APERTURE END LIST*
D10*
X386737639Y-64049961D02*
G75*
G02*
X388325039Y-65637361I-1J-1587401D01*
G01*
X388325000Y-183817539D02*
G75*
G02*
X386737600Y-185404939I-1587401J1D01*
G01*
X42162461Y-185404939D02*
G75*
G02*
X40575061Y-183817539I1J1587401D01*
G01*
X40575000Y-65637400D02*
G75*
G02*
X42162400Y-64050000I1587400J0D01*
G01*
X226550832Y-64050000D02*
X221550000Y-59050000D01*
X42162461Y-185404939D02*
X386737600Y-185404939D01*
X329812000Y-187324900D02*
X330062000Y-187324900D01*
X330062000Y-187574900D01*
X329812000Y-187574900D01*
X329812000Y-187324900D01*
X188535799Y-116240799D02*
G75*
G02*
X178534201Y-116240799I-5000799J0D01*
G01*
X178534201Y-116240799D02*
G75*
G02*
X188535799Y-116240799I5000799J0D01*
G01*
X202550000Y-59050000D02*
X197550000Y-64050000D01*
X42162400Y-64050000D02*
X197550000Y-64050000D01*
X74195799Y-73610001D02*
G75*
G02*
X64194201Y-73610001I-5000799J0D01*
G01*
X64194201Y-73610001D02*
G75*
G02*
X74195799Y-73610001I5000799J0D01*
G01*
X217600000Y-85160000D02*
G75*
G02*
X213600000Y-85160000I-2000000J0D01*
G01*
X213600000Y-85160000D02*
G75*
G02*
X217600000Y-85160000I2000000J0D01*
G01*
X383776859Y-154540799D02*
G75*
G02*
X373775261Y-154540799I-5000799J0D01*
G01*
X373775261Y-154540799D02*
G75*
G02*
X383776859Y-154540799I5000799J0D01*
G01*
X218950799Y-173580799D02*
G75*
G02*
X208949201Y-173580799I-5000799J0D01*
G01*
X208949201Y-173580799D02*
G75*
G02*
X218950799Y-173580799I5000799J0D01*
G01*
X388325000Y-183817500D02*
X388325000Y-65637400D01*
X250440799Y-73570000D02*
G75*
G02*
X240439201Y-73570000I-5000799J0D01*
G01*
X240439201Y-73570000D02*
G75*
G02*
X250440799Y-73570000I5000799J0D01*
G01*
X221550000Y-59050000D02*
X202550000Y-59050000D01*
X226550832Y-64050000D02*
X386737600Y-64050000D01*
X40575000Y-65637400D02*
X40575000Y-183817500D01*
M02*
