M48
; DRILL file {KiCad 7.0.6} date Sat 21 Oct 2023 08:39:45 AM EDT
; FORMAT={-:-/ absolute / inch / decimal}
; #@! TF.CreationDate,2023-10-21T08:39:45-04:00
; #@! TF.GenerationSoftware,Kicad,Pcbnew,7.0.6
; #@! TF.FileFunction,Plated,1,2,PTH
FMAT,2
INCH
; #@! TA.AperFunction,Plated,PTH,ComponentDrill
T1C0.0276
; #@! TA.AperFunction,Plated,PTH,ComponentDrill
T2C0.0433
; #@! TA.AperFunction,Plated,PTH,ComponentDrill
T3C0.0579
%
G90
G05
T1
X0.9715Y-1.5
X1.159Y-2.625
X1.159Y-3.375
X1.159Y-4.875
X1.159Y-5.625
X1.2785Y-1.5
X1.3465Y-4.125
X1.466Y-2.625
X1.466Y-3.375
X1.466Y-4.875
X1.466Y-5.625
X1.6535Y-4.125
X1.909Y-3.375
X2.0965Y-2.625
X2.0965Y-4.875
X2.216Y-3.375
X2.284Y-5.625
X2.3777Y-4.125
X2.4035Y-2.625
X2.4035Y-4.875
X2.4715Y-1.5
X2.591Y-5.625
X2.659Y-3.375
X2.6848Y-4.125
X2.7785Y-1.5
X2.8465Y-2.625
X2.8465Y-4.875
X2.966Y-3.375
X3.1277Y-4.125
X3.1535Y-2.625
X3.1535Y-4.875
X3.2215Y-1.5
X3.409Y-3.375
X3.409Y-5.625
X3.4348Y-4.125
X3.5285Y-1.5
X3.5965Y-2.625
X3.5965Y-4.875
X3.716Y-3.375
X3.716Y-5.625
X3.8777Y-4.125
X3.9035Y-2.625
X3.9035Y-4.875
X3.9715Y-1.5
X4.159Y-3.375
X4.1848Y-4.125
X4.2785Y-1.5
X4.3465Y-2.625
X4.3465Y-4.875
X4.466Y-3.375
X4.6277Y-4.125
X4.6535Y-2.625
X4.6535Y-4.875
X4.7215Y-1.5
X4.909Y-3.375
X4.9348Y-4.125
X5.0285Y-1.5
X5.0965Y-2.625
X5.0965Y-4.875
X5.216Y-3.375
X5.3777Y-4.125
X5.4035Y-2.625
X5.4035Y-4.875
X5.659Y-3.375
X5.6848Y-4.125
X5.8465Y-1.5
X5.8465Y-2.625
X5.966Y-3.375
X6.1535Y-1.5
X6.1535Y-2.625
X6.2215Y-4.125
X6.2215Y-4.875
X6.2215Y-5.625
X6.5285Y-4.125
X6.5285Y-4.875
X6.5285Y-5.625
X6.5965Y-1.5
X6.5965Y-2.625
X6.784Y-3.375
X6.9035Y-1.5
X6.9035Y-2.625
X7.0652Y-4.125
X7.091Y-3.375
X7.3465Y-1.5
X7.3465Y-2.625
X7.3465Y-4.875
X7.3723Y-4.125
X7.534Y-3.375
X7.6535Y-1.5
X7.6535Y-2.625
X7.6535Y-4.875
X7.8152Y-4.125
X7.841Y-3.375
X8.0965Y-1.5
X8.0965Y-2.625
X8.0965Y-4.875
X8.1223Y-4.125
X8.284Y-3.375
X8.4035Y-1.5
X8.4035Y-2.625
X8.4035Y-4.875
X8.5652Y-4.125
X8.591Y-3.375
X8.8465Y-2.625
X8.8465Y-4.875
X8.8723Y-4.125
X8.9402Y-5.625
X9.034Y-3.375
X9.1535Y-2.625
X9.1535Y-4.875
X9.2215Y-1.5
X9.2473Y-5.625
X9.3152Y-4.125
X9.341Y-3.375
X9.5285Y-1.5
X9.5965Y-2.625
X9.5965Y-4.875
X9.6223Y-4.125
X9.784Y-3.375
X9.784Y-5.625
X9.9035Y-2.625
X9.9035Y-4.875
X9.9715Y-1.5
X10.0652Y-4.125
X10.091Y-3.375
X10.091Y-5.625
X10.2785Y-1.5
X10.3465Y-2.625
X10.3465Y-4.875
X10.3723Y-4.125
X10.534Y-3.375
X10.534Y-5.625
X10.6535Y-2.625
X10.6535Y-4.875
X10.7215Y-1.5
X10.841Y-3.375
X10.841Y-5.625
X11.0285Y-1.5
X11.0965Y-4.125
X11.284Y-2.625
X11.284Y-3.375
X11.284Y-4.875
X11.3777Y-5.625
X11.4035Y-4.125
X11.4715Y-1.5
X11.591Y-2.625
X11.591Y-3.375
X11.591Y-4.875
X11.6848Y-5.625
X11.7785Y-1.5
X12.409Y-1.5
X12.409Y-2.625
X12.409Y-3.375
X12.409Y-4.125
X12.409Y-5.625
X12.716Y-1.5
X12.716Y-2.625
X12.716Y-3.375
X12.716Y-4.125
X12.716Y-5.625
X13.159Y-1.5
X13.159Y-2.625
X13.159Y-3.375
X13.159Y-4.125
X13.159Y-4.875
X13.159Y-5.625
X13.466Y-1.5
X13.466Y-2.625
X13.466Y-3.375
X13.466Y-4.125
X13.466Y-4.875
X13.466Y-5.625
X13.909Y-1.5
X13.909Y-2.625
X13.909Y-3.375
X13.909Y-4.125
X13.909Y-5.625
X14.216Y-1.5
X14.216Y-2.625
X14.216Y-3.375
X14.216Y-4.125
X14.216Y-5.625
T2
X7.2Y-0.8386
X7.2Y-0.9386
X7.2Y-1.0386
X7.2Y-1.1386
X7.2Y-1.2386
X7.2Y-1.3386
X7.2Y-1.4386
X7.2Y-1.5386
X7.2Y-1.6386
X7.2Y-1.7386
X7.2Y-1.8386
X7.2Y-1.9386
X7.3Y-1.9386
X7.4Y-1.9386
X7.5Y-1.9386
X7.6Y-1.9386
X7.7Y-1.9386
X7.8Y-0.8386
X7.8Y-0.9386
X7.8Y-1.0386
X7.8Y-1.1386
X7.8Y-1.2386
X7.8Y-1.3386
X7.8Y-1.4386
X7.8Y-1.5386
X7.8Y-1.6386
X7.8Y-1.7386
X7.8Y-1.8386
X7.8Y-1.9386
T3
X0.975Y-1.025
X1.0375Y-2.9
X1.1625Y-2.15
X1.1625Y-4.4
X1.1625Y-5.15
X1.225Y-0.925
X1.2875Y-2.8
X1.2875Y-3.65
X1.4125Y-2.05
X1.4125Y-4.3
X1.4125Y-5.05
X1.5375Y-3.55
X1.85Y-2.9
X2.1Y-2.15
X2.1Y-2.8
X2.1Y-4.4
X2.2875Y-5.15
X2.35Y-2.05
X2.35Y-3.65
X2.35Y-4.3
X2.475Y-1.025
X2.5375Y-5.05
X2.6Y-2.9
X2.6Y-3.55
X2.725Y-0.925
X2.85Y-2.15
X2.85Y-2.8
X2.85Y-4.4
X3.1Y-2.05
X3.1Y-3.65
X3.1Y-4.3
X3.225Y-1.025
X3.35Y-2.9
X3.35Y-3.55
X3.4125Y-5.15
X3.475Y-0.925
X3.6Y-2.15
X3.6Y-2.8
X3.6Y-4.4
X3.6625Y-5.05
X3.85Y-2.05
X3.85Y-3.65
X3.85Y-4.3
X3.975Y-1.025
X4.1Y-2.9
X4.1Y-3.55
X4.225Y-0.925
X4.35Y-2.15
X4.35Y-2.8
X4.35Y-4.4
X4.6Y-2.05
X4.6Y-3.65
X4.6Y-4.3
X4.725Y-1.025
X4.85Y-2.9
X4.85Y-3.55
X4.975Y-0.925
X5.1Y-2.15
X5.1Y-2.8
X5.1Y-4.4
X5.35Y-2.05
X5.35Y-3.65
X5.35Y-4.3
X5.6Y-2.9
X5.6Y-3.55
X5.85Y-1.025
X5.85Y-2.15
X5.85Y-2.8
X6.1Y-0.925
X6.1Y-2.05
X6.225Y-3.65
X6.225Y-4.4
X6.225Y-5.15
X6.475Y-3.55
X6.475Y-4.3
X6.475Y-5.05
X6.6Y-1.025
X6.6Y-2.15
X6.85Y-0.925
X6.85Y-2.05
X6.85Y-2.9
X7.1Y-2.8
X7.1Y-3.65
X7.35Y-1.025
X7.35Y-2.15
X7.35Y-3.55
X7.35Y-4.4
X7.6Y-0.925
X7.6Y-2.05
X7.6Y-2.9
X7.6Y-4.3
X7.85Y-2.8
X7.85Y-3.65
X8.1Y-1.025
X8.1Y-2.15
X8.1Y-3.55
X8.1Y-4.4
X8.35Y-0.925
X8.35Y-2.05
X8.35Y-2.9
X8.35Y-4.3
X8.6Y-2.8
X8.6Y-3.65
X8.85Y-2.15
X8.85Y-3.55
X8.85Y-4.4
X8.9437Y-5.15
X9.1Y-2.05
X9.1Y-2.9
X9.1Y-4.3
X9.1937Y-5.05
X9.225Y-1.025
X9.35Y-2.8
X9.35Y-3.65
X9.475Y-0.925
X9.6Y-2.15
X9.6Y-3.55
X9.6Y-4.4
X9.7875Y-5.15
X9.85Y-2.05
X9.85Y-2.9
X9.85Y-4.3
X9.975Y-1.025
X10.0375Y-5.05
X10.1Y-2.8
X10.1Y-3.65
X10.225Y-0.925
X10.35Y-2.15
X10.35Y-3.55
X10.35Y-4.4
X10.5375Y-5.15
X10.6Y-2.05
X10.6Y-2.9
X10.6Y-4.3
X10.725Y-1.025
X10.7875Y-5.05
X10.85Y-2.8
X10.975Y-0.925
X11.1625Y-3.65
X11.2875Y-2.15
X11.2875Y-4.4
X11.3812Y-5.15
X11.4125Y-2.9
X11.4125Y-3.55
X11.475Y-1.025
X11.5375Y-2.05
X11.5375Y-4.3
X11.6312Y-5.05
X11.6625Y-2.8
X11.725Y-0.925
X12.4125Y-1.025
X12.4125Y-2.15
X12.4125Y-2.9
X12.4125Y-3.65
X12.4125Y-5.15
X12.6625Y-0.925
X12.6625Y-2.05
X12.6625Y-2.8
X12.6625Y-3.55
X12.6625Y-5.05
X13.1625Y-1.025
X13.1625Y-2.15
X13.1625Y-2.9
X13.1625Y-3.65
X13.1625Y-4.4
X13.1625Y-5.15
X13.4125Y-0.925
X13.4125Y-2.05
X13.4125Y-2.8
X13.4125Y-3.55
X13.4125Y-4.3
X13.4125Y-5.05
X13.9125Y-1.025
X13.9125Y-2.15
X13.9125Y-2.9
X13.9125Y-3.65
X13.9125Y-5.15
X14.1625Y-0.925
X14.1625Y-2.05
X14.1625Y-2.8
X14.1625Y-3.55
X14.1625Y-5.05
T0
M30
