M48
; DRILL file {KiCad 7.0.6} date Sat 21 Oct 2023 08:39:45 AM EDT
; FORMAT={-:-/ absolute / inch / decimal}
; #@! TF.CreationDate,2023-10-21T08:39:45-04:00
; #@! TF.GenerationSoftware,Kicad,Pcbnew,7.0.6
; #@! TF.FileFunction,NonPlated,1,2,NPTH
FMAT,2
INCH
; #@! TA.AperFunction,NonPlated,NPTH,ComponentDrill
T1C0.0670
; #@! TA.AperFunction,NonPlated,NPTH,ComponentDrill
T2C0.1200
; #@! TA.AperFunction,NonPlated,NPTH,ComponentDrill
T3C0.1570
%
G90
G05
T1
X0.925Y-1.125
X0.9875Y-3.0
X1.1125Y-2.25
X1.1125Y-4.5
X1.1125Y-5.25
X1.2375Y-3.75
X1.325Y-1.125
X1.3875Y-3.0
X1.5125Y-2.25
X1.5125Y-4.5
X1.5125Y-5.25
X1.6375Y-3.75
X1.8Y-3.0
X2.05Y-2.25
X2.05Y-4.5
X2.2Y-3.0
X2.2375Y-5.25
X2.3Y-3.75
X2.425Y-1.125
X2.45Y-2.25
X2.45Y-4.5
X2.55Y-3.0
X2.6375Y-5.25
X2.7Y-3.75
X2.8Y-2.25
X2.8Y-4.5
X2.825Y-1.125
X2.95Y-3.0
X3.05Y-3.75
X3.175Y-1.125
X3.2Y-2.25
X3.2Y-4.5
X3.3Y-3.0
X3.3625Y-5.25
X3.45Y-3.75
X3.55Y-2.25
X3.55Y-4.5
X3.575Y-1.125
X3.7Y-3.0
X3.7625Y-5.25
X3.8Y-3.75
X3.925Y-1.125
X3.95Y-2.25
X3.95Y-4.5
X4.05Y-3.0
X4.2Y-3.75
X4.3Y-2.25
X4.3Y-4.5
X4.325Y-1.125
X4.45Y-3.0
X4.55Y-3.75
X4.675Y-1.125
X4.7Y-2.25
X4.7Y-4.5
X4.8Y-3.0
X4.95Y-3.75
X5.05Y-2.25
X5.05Y-4.5
X5.075Y-1.125
X5.2Y-3.0
X5.3Y-3.75
X5.45Y-2.25
X5.45Y-4.5
X5.55Y-3.0
X5.7Y-3.75
X5.8Y-1.125
X5.8Y-2.25
X5.95Y-3.0
X6.175Y-3.75
X6.175Y-4.5
X6.175Y-5.25
X6.2Y-1.125
X6.2Y-2.25
X6.55Y-1.125
X6.55Y-2.25
X6.575Y-3.75
X6.575Y-4.5
X6.575Y-5.25
X6.8Y-3.0
X6.95Y-1.125
X6.95Y-2.25
X7.05Y-3.75
X7.2Y-3.0
X7.3Y-1.125
X7.3Y-2.25
X7.3Y-4.5
X7.45Y-3.75
X7.55Y-3.0
X7.7Y-1.125
X7.7Y-2.25
X7.7Y-4.5
X7.8Y-3.75
X7.95Y-3.0
X8.05Y-1.125
X8.05Y-2.25
X8.05Y-4.5
X8.2Y-3.75
X8.3Y-3.0
X8.45Y-1.125
X8.45Y-2.25
X8.45Y-4.5
X8.55Y-3.75
X8.7Y-3.0
X8.8Y-2.25
X8.8Y-4.5
X8.8937Y-5.25
X8.95Y-3.75
X9.05Y-3.0
X9.175Y-1.125
X9.2Y-2.25
X9.2Y-4.5
X9.2937Y-5.25
X9.3Y-3.75
X9.45Y-3.0
X9.55Y-2.25
X9.55Y-4.5
X9.575Y-1.125
X9.7Y-3.75
X9.7375Y-5.25
X9.8Y-3.0
X9.925Y-1.125
X9.95Y-2.25
X9.95Y-4.5
X10.05Y-3.75
X10.1375Y-5.25
X10.2Y-3.0
X10.3Y-2.25
X10.3Y-4.5
X10.325Y-1.125
X10.45Y-3.75
X10.4875Y-5.25
X10.55Y-3.0
X10.675Y-1.125
X10.7Y-2.25
X10.7Y-4.5
X10.8875Y-5.25
X10.95Y-3.0
X11.075Y-1.125
X11.1125Y-3.75
X11.2375Y-2.25
X11.2375Y-4.5
X11.3312Y-5.25
X11.3625Y-3.0
X11.425Y-1.125
X11.5125Y-3.75
X11.6375Y-2.25
X11.6375Y-4.5
X11.7312Y-5.25
X11.7625Y-3.0
X11.825Y-1.125
X12.3625Y-1.125
X12.3625Y-2.25
X12.3625Y-3.0
X12.3625Y-3.75
X12.3625Y-5.25
X12.7625Y-1.125
X12.7625Y-2.25
X12.7625Y-3.0
X12.7625Y-3.75
X12.7625Y-5.25
X13.1125Y-1.125
X13.1125Y-2.25
X13.1125Y-3.0
X13.1125Y-3.75
X13.1125Y-4.5
X13.1125Y-5.25
X13.5125Y-1.125
X13.5125Y-2.25
X13.5125Y-3.0
X13.5125Y-3.75
X13.5125Y-4.5
X13.5125Y-5.25
X13.8625Y-1.125
X13.8625Y-2.25
X13.8625Y-3.0
X13.8625Y-3.75
X13.8625Y-5.25
X14.2625Y-1.125
X14.2625Y-2.25
X14.2625Y-3.0
X14.2625Y-3.75
X14.2625Y-5.25
T2
X4.4985Y-4.975
X5.905Y-4.225
X6.845Y-4.225
X8.2515Y-4.975
T3
X1.125Y-1.125
X1.1875Y-3.0
X1.3125Y-2.25
X1.3125Y-4.5
X1.3125Y-5.25
X1.4375Y-3.75
X2.0Y-3.0
X2.25Y-2.25
X2.25Y-4.5
X2.4375Y-5.25
X2.5Y-3.75
X2.625Y-1.125
X2.75Y-3.0
X3.0Y-2.25
X3.0Y-4.5
X3.25Y-3.75
X3.375Y-1.125
X3.5Y-3.0
X3.5625Y-5.25
X3.75Y-2.25
X3.75Y-4.5
X4.0Y-3.75
X4.125Y-1.125
X4.25Y-3.0
X4.4985Y-5.575
X4.5Y-2.25
X4.5Y-4.5
X4.75Y-3.75
X4.875Y-1.125
X5.0Y-3.0
X5.25Y-2.25
X5.25Y-4.5
X5.5Y-3.75
X5.75Y-3.0
X5.905Y-4.825
X6.0Y-1.125
X6.0Y-2.25
X6.375Y-3.75
X6.375Y-4.5
X6.375Y-5.25
X6.75Y-1.125
X6.75Y-2.25
X6.845Y-4.825
X7.0Y-3.0
X7.25Y-3.75
X7.5Y-1.125
X7.5Y-2.25
X7.5Y-4.5
X7.75Y-3.0
X8.0Y-3.75
X8.25Y-1.125
X8.25Y-2.25
X8.25Y-4.5
X8.2515Y-5.575
X8.5Y-3.0
X8.75Y-3.75
X9.0Y-2.25
X9.0Y-4.5
X9.0938Y-5.25
X9.25Y-3.0
X9.375Y-1.125
X9.5Y-3.75
X9.75Y-2.25
X9.75Y-4.5
X9.9375Y-5.25
X10.0Y-3.0
X10.125Y-1.125
X10.25Y-3.75
X10.5Y-2.25
X10.5Y-4.5
X10.6875Y-5.25
X10.75Y-3.0
X10.875Y-1.125
X11.3125Y-3.75
X11.4375Y-2.25
X11.4375Y-4.5
X11.5312Y-5.25
X11.5625Y-3.0
X11.625Y-1.125
X12.5625Y-1.125
X12.5625Y-2.25
X12.5625Y-3.0
X12.5625Y-3.75
X12.5625Y-5.25
X13.3125Y-1.125
X13.3125Y-2.25
X13.3125Y-3.0
X13.3125Y-3.75
X13.3125Y-4.5
X13.3125Y-5.25
X14.0625Y-1.125
X14.0625Y-2.25
X14.0625Y-3.0
X14.0625Y-3.75
X14.0625Y-5.25
T0
M30
